<svg xmlns="http://www.w3.org/2000/svg" viewBox="0 0 64 64" fill="none">
  <defs>
    <linearGradient id="g" x1="10" y1="8" x2="54" y2="56" gradientUnits="userSpaceOnUse">
      <stop offset="0" stop-color="#FFB400"/>
      <stop offset="1" stop-color="#FF6B35"/>
    </linearGradient>
    <linearGradient id="g2" x1="20" y1="18" x2="46" y2="46" gradientUnits="userSpaceOnUse">
      <stop offset="0" stop-color="#111111" stop-opacity="0.85"/>
      <stop offset="1" stop-color="#111111" stop-opacity="0.6"/>
    </linearGradient>
  </defs>
  <rect x="6" y="6" width="52" height="52" rx="16" fill="#111111"/>
  <rect x="10" y="10" width="44" height="44" rx="14" fill="url(#g)"/>
  <path d="M20 24c0-2.21 1.79-4 4-4h20c2.21 0 4 1.79 4 4v4.5c0 5.8-4.7 10.5-10.5 10.5h-3.5c-1.93 0-3.5 1.57-3.5 3.5V46h-6v-3.5c0-5.52 4.48-10 10-10h3.5c1.38 0 2.5-1.12 2.5-2.5V26h-18v4h-6V24Z" fill="#111111"/>
  <circle cx="24" cy="44" r="4" fill="url(#g2)"/>
  <circle cx="42" cy="18" r="6" fill="#111111" fill-opacity="0.35"/>
</svg>
